<svg xmlns="http://www.w3.org/2000/svg" xmlns:xlink="http://www.w3.org/1999/xlink" viewBox="0 0 90 132.66"><defs><style>.cls-1{fill:url(#linear-gradient);}</style><linearGradient id="linear-gradient" x1="-232.69" y1="-150.3" x2="301.44" y2="266.38" gradientUnits="userSpaceOnUse"><stop offset="0" stop-color="#eac81f"/><stop offset="0.04" stop-color="#eac924"/><stop offset="0.1" stop-color="#eccc34"/><stop offset="0.16" stop-color="#eed14e"/><stop offset="0.23" stop-color="#f1d872"/><stop offset="0.3" stop-color="#f5e2a0"/><stop offset="0.37" stop-color="#faedd7"/><stop offset="0.4" stop-color="#fcf1ed"/><stop offset="0.52" stop-color="#fdd6b2"/><stop offset="0.64" stop-color="#febe7d"/><stop offset="0.75" stop-color="#feac54"/><stop offset="0.85" stop-color="#ff9e36"/><stop offset="0.94" stop-color="#ff9624"/><stop offset="1" stop-color="#ff931e"/></linearGradient></defs><g id="Layer_2" data-name="Layer 2"><g id="Layer_3" data-name="Layer 3"><path class="cls-1" d="M19.35,19.32,8.64,26.92,19,14.83ZM34.55,4.47,21.42,13.1l.35,3.46ZM0,66.33,12.44,83.62l.35-17.29h0L12.44,49,0,66.33ZM0,38.67V61.12L11.75,44.89ZM0,71.53V94l11.75-6.22ZM16.93,39.71l23.15-15.9L21.77,22.09Zm43.18-9,6.57-8.63L49.75,23.47ZM76.87,41.78l11.4-5.87L72.38,23.81ZM43.53,0,24.19,19l19.34,1.73ZM71,14.83l-.35,4.49,10.71,7.6Zm2.07,24.88-4-16.24L63.22,32.8ZM46.47,0V20.71L65.81,19ZM13.13,90.88,1.73,96.75l15.89,12.09ZM68.58,13.1,55.45,4.47,68.23,16.56Zm-51,10.71L1.73,35.91l11.4,5.87Zm53.38,94,10.36-12.1-10.71,7.6ZM55.45,128.19l13.13-8.64-.35-3.45Zm16.93-19.35L88.27,96.75l-11.4-5.87ZM90,94V71.53L78.25,87.77ZM78.25,44.89,90,61.12V38.67ZM90,66.33,77.56,49l-.34,17.3h0l.34,17.29L90,66.33ZM46.47,112v20.71l19.34-19ZM74.11,87.77l-29,20.61v.12l-.08-.06-.08.06v-.12l-29-20.61V44.89l29-20.61v-.12l.08.06.08-.06v.12l29,20.61V87.77ZM37.32,61V46.47H54.78a8.73,8.73,0,0,0,8.73-8.73H28.59V96H54.78a8.73,8.73,0,0,0,8.73-8.73H37.32V72.67h8.73A11.65,11.65,0,0,0,57.69,61Zm-15.9,58.53,13.13,8.64L21.77,116.1ZM73.07,93,49.92,108.84l18.31,1.73ZM19,117.83l.35-4.5-10.71-7.6Zm24.53,14.83V112l-19.34,1.73Zm-3.45-23.82L16.93,93l4.84,17.62Z"/></g></g></svg>