<svg xmlns="http://www.w3.org/2000/svg" viewBox="0 0 782 617"><defs><style>.cls-1{fill:none;stroke:#fcf1ed;stroke-width:2px;fill-rule:evenodd;}.cls-2,.cls-4{fill:#fcf1ed;}.cls-3{isolation:isolate;}.cls-4{stroke:#fff;stroke-miterlimit:10;}.cls-5{fill:#fff;}</style></defs><g id="Layer_2" data-name="Layer 2"><g id="Layer_9" data-name="Layer 9"><path class="cls-1" d="M56.32,1H725.68C756.23,1,781,26.54,781,58V559c0,31.5-24.77,57-55.32,57H56.32C25.77,616,1,590.46,1,559V58C1,26.54,25.77,1,56.32,1Z"/></g><g id="Layer_6" data-name="Layer 6"><path class="cls-1" d="M405.71,66.06c84.27,0,152.59,70.65,152.59,157.8S490,381.66,405.71,381.66,253.12,311,253.12,223.86,321.43,66.06,405.71,66.06Z"/></g><g id="Layer_5" data-name="Layer 5"><path class="cls-1" d="M405.16,80.11c76.64,0,138.77,64.25,138.77,143.51S481.8,367.13,405.16,367.13,266.39,302.87,266.39,223.62,328.52,80.11,405.16,80.11Z"/></g><g id="Layer_4" data-name="Layer 4"><path class="cls-1" d="M404.76,380.36s-14.68,4.77-10,9.55c-.53,3.91-8.89.43-8.26.44.95,0-3-1.11-5.36-5.64-1.84-6.81,1.1-6.52,5.36-3.92,2.65,4.35,11.39-2.75,9.56-5.64s-6.14-10,3-9.55c4.19,2.53,4.91,4.54,6.09,8.68C406.11,378.26,404.76,380.36,404.76,380.36ZM392.59,369.5c0,6.81-14.29-7.23-6.52-18.67,6.33-8,15.7,1.45,10.43,6.08C388.34,361.39,392.59,369.5,392.59,369.5Zm-2.17,7.39S377,366,364.33,365.6s-13.38-13.32.87-11.3C383.44,356.9,397.54,382.39,390.42,376.89ZM363,388.18l-3,5.21s3.53-34.89-27.83-30c-9.51-.17-10.37-18.49,12.18-8.25C354.49,360.53,367.44,372,363,388.18ZM325.21,360c3.48,4.13.43,2.61.43,2.61-2.11-1-26.46-8-22.17-21.72s16.09-3.9,16.09-3.9,7.66,6.55.43,10.85C307.12,347.75,325.21,360,325.21,360Zm-14.35-44.73c-5.43.21,2.4,4.36-6.95,2.61-4.14,0,2.39,7,5.21,3.91s5.66-.42-.43,4.77S295.43,333,296.08,337.8,292,343,311.73,356.48c8,6.28,6.09,7.18,6.52,8.25s17.83-1.94,27.39,5.21,15,13.46,12.17,24.75c0,0-8.9-21.05-26.51-21.71s-31.95-5.2-34.78-7.82-5.87-4.54-7-4.34-8.91-.42-19.13-11.29-8.69-13.45-9.56-15.63-.65-4.55-4.78-.87-6.95-2.16-10.87-5.21-14.56-14.1-7.83-21.28,11.75,5.66,11.74,4.78l3.05,4.34s7.82.23-1.31-7.82c-7.18-13-2.6-13.23-3-14.76s-.22-1.73-7-6.52,5.22-7.6,13,.44c2.83,2.82,4.57,2,8.26,20.84s4.14,16.52,4.79,20.84l2.6,6.52s6.53,4.36,1.31-10a43.23,43.23,0,0,1,0-22.15s-.43-11.49-7-19.1-13.9-10-18.26-8.69-12-4.11-7.82-8.25,17.61-.2,19.56,2.17,12.4,8.05,18.26,17.37c2.82,7.15,6.31,7,2.17,22.15s1.53,30,4.79,34.3,8.69,13.92,12.17,10.43-6.3-3.68-11.3-17.81-3.91-24.73,1.73-35.17,18.05-7.15,20.87.43c0,0-2.82,3.71-1.3,5.65s8.91-4.55,12.17,6.08C317.16,317.6,316.3,315,310.86,315.22Zm-20-3.47c-6.09,10.87,0,11.93.87,8.68s7.82-10,7.82-10C303.91,312,297,300.88,290.87,311.75ZM366.94,386c-.53-.14-3.24-7.67,4.35-13,8-2.89,13.43.14,13.91,1.73s4.2,3.33,0,3c0,0-10.05-1.74-9.56,7.82C371.05,392.23,367.47,386.15,366.94,386Zm-22.6.87c15.65,21,37,.87,37,.87,1.63-.32,2.61,3,2.61,3-13,18.69-27.67,11.6-40,9.55C333.59,398.62,328.57,377.85,344.34,386.87Z"/><path class="cls-1" d="M406.32,374.53c1.17-4.14,1.9-6.15,6.08-8.68,9.18-.44,4.88,6.66,3,9.55s6.91,10,9.57,5.64c4.25-2.6,7.19-2.89,5.35,3.92-2.37,4.53-6.3,5.65-5.35,5.64.63,0-7.73,3.47-8.26-.44,4.69-4.78-10-9.55-10-9.55S405.41,378.51,406.32,374.53ZM415,357.16c-5.27-4.63,4.11-14,10.43-6.08,7.78,11.44-6.52,25.48-6.52,18.67C418.92,369.75,423.18,361.64,415,357.16Zm31.3-2.6c14.25-2,13.57,10.85.87,11.29s-26.08,11.29-26.08,11.29C414,382.64,428.07,357.15,446.31,354.56Zm20.87.86c22.54-10.24,21.68,8.08,12.17,8.25-31.36-4.92-27.82,30-27.82,30l-3-5.21C444.08,372.21,457,360.78,467.18,355.42ZM491.52,348c-7.22-4.3.44-10.85.44-10.85s11.78-9.81,16.08,3.9-20.06,20.7-22.17,21.72c0,0-3,1.52.43-2.61C486.3,360.2,504.4,348,491.52,348Zm3-35.17c3.26-10.63,10.66-4.14,12.18-6.08s-1.31-5.65-1.31-5.65c2.82-7.58,15.22-10.87,20.87-.43S533,321.76,528,335.88s-14.78,14.32-11.31,17.81,8.92-6.1,12.18-10.42,8.91-19.13,4.78-34.31-.65-15,2.17-22.15c5.87-9.32,16.31-15,18.26-17.37s15.44-6.31,19.56-2.17-3.47,9.54-7.82,8.25-11.73,1.07-18.26,8.69-7,19.1-7,19.1a43.23,43.23,0,0,1,0,22.15c-5.22,14.35,1.31,10,1.31,10l2.61-6.51c.65-4.33,1.09-2,4.78-20.85s5.43-18,8.26-20.84c7.82-8,19.78-5.23,13-.44s-6.52,5-6.95,6.52,4.13,1.72-3.05,14.76c-9.13,8.05-1.3,7.82-1.3,7.82l3-4.34c0,.88,5-12,11.74-4.78s-3.91,18.22-7.83,21.28-6.73,8.88-10.86,5.21-3.91-1.32-4.79.87.66,4.76-9.56,15.63S523,361.27,522,361.07s-4.12,1.72-7,4.34-17.17,7.15-34.78,7.82-26.52,21.71-26.52,21.71c-2.83-11.29,2.61-17.6,12.17-24.75s27-4.14,27.39-5.21-1.52-2,6.52-8.25c19.78-13.45,15-13.91,15.65-18.68s-6.52-6.09-12.61-11.29-3.25-7.83-.43-4.77,9.35-3.93,5.22-3.91c-9.35,1.75-1.52-2.4-7-2.61S494.35,317.85,494.56,312.87ZM512,310.7s6.95,6.74,7.83,10,7,2.19.87-8.68S507.61,312.22,512,310.7Zm-76.07,75.12c.48-9.56-9.57-7.82-9.57-7.82-4.2.29-.48-1.44,0-3s5.89-4.62,13.91-1.73c7.59,5.35,4.88,12.88,4.35,13S440.46,392.48,435.88,385.82Zm31.73,14.76c-12.33,2.05-27,9.14-40-9.55,0,0,1-3.36,2.6-3,0,0,21.3,20.1,37-.87C482.94,378.1,477.93,398.87,467.61,400.58Z"/><path class="cls-1" d="M405.86,383.75c4.76.1,8.46,3.78,8.27,8.21s-4.2,7.94-9,7.83-8.46-3.78-8.27-8.21S401.1,383.64,405.86,383.75Z"/></g><g id="Layer_3" data-name="Layer 3"><polygon class="cls-2" points="380 175.68 369.64 187.77 380.35 180.17 380 175.68"/><polygon class="cls-2" points="395.55 165.31 382.42 173.95 382.77 177.4 395.55 165.31"/><polygon class="cls-2" points="361 227.17 373.44 244.47 373.79 227.17 373.79 227.17 373.79 227.17 373.44 209.88 361 227.17 361 227.17 361 227.17 361 227.17 361 227.17"/><polygon class="cls-2" points="361 199.51 361 221.97 372.75 205.73 361 199.51"/><polygon class="cls-2" points="361 232.38 361 254.83 372.75 248.61 361 232.38"/><polygon class="cls-2" points="377.93 200.55 401.08 184.66 382.77 182.93 377.93 200.55"/><polygon class="cls-2" points="421.11 191.57 427.68 182.93 410.75 184.31 421.11 191.57"/><polygon class="cls-2" points="437.87 202.62 449.27 196.75 433.38 184.66 437.87 202.62"/><polygon class="cls-2" points="404.53 160.84 385.19 179.82 404.53 181.55 404.53 160.84"/><polygon class="cls-2" points="432 175.68 431.65 180.17 442.36 187.77 432 175.68"/><polygon class="cls-2" points="434.07 200.55 430.1 184.31 424.22 193.64 434.07 200.55"/><polygon class="cls-2" points="407.47 160.84 407.47 181.55 426.81 179.82 407.47 160.84"/><polygon class="cls-2" points="374.13 251.72 362.73 257.59 378.62 269.69 374.13 251.72"/><polygon class="cls-2" points="429.58 173.95 416.45 165.31 429.23 177.4 429.58 173.95"/><polygon class="cls-2" points="378.62 184.66 362.73 196.75 374.13 202.62 378.62 184.66"/><polygon class="cls-2" points="432 278.67 442.36 266.58 431.65 274.18 432 278.67"/><polygon class="cls-2" points="416.45 289.03 429.58 280.39 429.23 276.94 416.45 289.03"/><polygon class="cls-2" points="433.38 269.69 449.27 257.59 437.87 251.72 433.38 269.69"/><polygon class="cls-2" points="451 254.83 451 232.38 439.25 248.61 451 254.83"/><polygon class="cls-2" points="439.25 205.73 451 221.97 451 199.51 439.25 205.73"/><polygon class="cls-2" points="451 227.17 438.56 209.88 438.21 227.17 438.21 227.17 438.21 227.17 438.56 244.47 451 227.17 451 227.17 451 227.17 451 227.17 451 227.17"/><polygon class="cls-2" points="407.47 272.8 407.47 293.5 426.81 274.52 407.47 272.8"/><path class="cls-2" d="M435.11,227.17V205.73l-29-20.61V185l-.08.06-.08-.06v.12l-29,20.61v42.88l29,20.61v.12l.08-.06.08.06v-.12l29-20.61Zm-16.42-5.3a11.64,11.64,0,0,1-11.64,11.64h-8.73v14.55h26.19a8.73,8.73,0,0,1-8.73,8.73H389.59V198.58h34.92a8.73,8.73,0,0,1-8.73,8.73H398.32v14.56Z"/><polygon class="cls-2" points="382.42 280.39 395.55 289.03 382.77 276.94 382.42 280.39"/><polygon class="cls-2" points="434.07 253.79 410.92 269.69 429.23 271.41 434.07 253.79"/><polygon class="cls-2" points="380 278.67 380.35 274.18 369.64 266.58 380 278.67"/><polygon class="cls-2" points="404.53 293.5 404.53 272.8 385.19 274.52 404.53 293.5"/><polygon class="cls-2" points="401.08 269.69 377.93 253.79 382.77 271.41 401.08 269.69"/></g><g id="Layer_7" data-name="Layer 7"><g class="cls-3"><g class="cls-3"><path class="cls-4" d="M198.33,426.84l7.36-.08c2.23,0,4.14-.08,5.72-.15a24.76,24.76,0,0,0,3.22-.26L213,430.68a22.14,22.14,0,0,0-2.5-.52c-.83-.13-1.83-.26-3-.38a40.81,40.81,0,0,0-4.08-.18c-.52,0-1.15,0-1.87,0s-1.43.07-2.1.12l-2.37.13v17.75q3.34,0,6-.2c1.79-.1,3.32-.21,4.58-.32,1.47-.13,2.77-.28,3.9-.46l-1,4.72c-1.49-.2-3-.38-4.58-.55-1.34-.16-2.81-.29-4.39-.41s-3.1-.18-4.55-.18v20.39a69.27,69.27,0,0,0,7-.33c2.15-.21,4-.46,5.63-.74q2.79-.46,5.1-1.08l-.94,5.27-1.17-.06-1.74-.07-2-.05-2,0-1.67,0c-.49,0-.84,0-1.06,0h-14v-.13c.13-.45.25-1,.37-1.69s.22-1.51.31-2.5.15-2.19.19-3.56.07-3,.07-4.83V439.62c0-1.84,0-3.45-.07-4.83s-.1-2.57-.19-3.58-.19-1.85-.31-2.52-.24-1.23-.37-1.69v-.13Q194.32,426.87,198.33,426.84Z"/><path class="cls-4" d="M226.11,438.54v.13a2.78,2.78,0,0,0-.1.53c0,.23,0,.44,0,.61a9.85,9.85,0,0,0,.31,2.33,19.89,19.89,0,0,0,1.16,3.2l8.64,19.58,8.72-19.32c.19-.41.39-.85.58-1.32s.38-.94.56-1.44a14.18,14.18,0,0,0,.42-1.51,7.21,7.21,0,0,0,.16-1.52,3.91,3.91,0,0,0-.06-.73,2,2,0,0,0-.13-.41v-.13h6.14v.13a14.2,14.2,0,0,0-1.59,2.3,33,33,0,0,0-2,4.18L235.9,474h-2.08l-12-27.16c-.43-1-.89-1.95-1.38-2.87s-.94-1.75-1.37-2.47-.79-1.34-1.12-1.83-.55-.8-.68-1v-.13Z"/><path class="cls-4" d="M275.73,462.51h-8.29c-1.11,0-2.16,0-3.15,0l-2.74,0h-1.91l-1.21,2.54c-.52,1-1,1.95-1.33,2.72s-.67,1.44-.91,2a11.92,11.92,0,0,0-.52,1.51,4.71,4.71,0,0,0-.16,1.19,3.42,3.42,0,0,0,0,.53.66.66,0,0,0,.1.28v.13h-5.73v-.13a6.36,6.36,0,0,0,.72-1c.32-.51.7-1.13,1.12-1.87s.88-1.57,1.37-2.51,1-1.89,1.44-2.89l13.27-27.38h2.44l13,27.38c.49,1,1,2,1.51,3s1,1.81,1.41,2.56.81,1.36,1.14,1.85a5.33,5.33,0,0,0,.65.86v.13h-8.32a2.09,2.09,0,0,0,.06-.47v-.47a6,6,0,0,0-.31-1.73,19.15,19.15,0,0,0-.75-2.06c-.29-.71-.59-1.38-.91-2s-.56-1.2-.76-1.63ZM260.9,460h4.9l3.1,0c1,0,2.05,0,3,0h2.63l-6.73-14.37Z"/><path class="cls-4" d="M292.64,426.94a2.41,2.41,0,0,0-.24.61,10.69,10.69,0,0,0-.25,1.16c-.08.51-.18,1.17-.29,2s-.24,1.85-.41,3.09-.35,2.75-.57,4.51-.47,3.81-.78,6.17h-1.46c-.3-2.38-.57-4.45-.8-6.19s-.41-3.24-.56-4.49-.29-2.28-.41-3.09-.22-1.47-.31-2-.17-.9-.24-1.16a5,5,0,0,0-.22-.61v-.07h6.54Z"/><path class="cls-4" d="M315.4,445.34h-.65a12.14,12.14,0,0,0-.63-1.4,8.55,8.55,0,0,0-1.17-1.66,6.52,6.52,0,0,0-1.81-1.38,5.39,5.39,0,0,0-2.57-.57,5.21,5.21,0,0,0-2,.38,4.24,4.24,0,0,0-2.45,2.57,5.51,5.51,0,0,0-.33,1.93,5.64,5.64,0,0,0,1,3.22,19.68,19.68,0,0,0,2.55,3q1.53,1.51,3.31,3A37.3,37.3,0,0,1,314,457.7a17.62,17.62,0,0,1,2.55,3.51,8,8,0,0,1,1,4,9.8,9.8,0,0,1-.57,3.21,8.1,8.1,0,0,1-1.84,3,9.68,9.68,0,0,1-3.25,2.19,12,12,0,0,1-4.81.86,16,16,0,0,1-3-.26,21.09,21.09,0,0,1-2.6-.63,17.31,17.31,0,0,1-2.11-.81,16,16,0,0,1-1.55-.83l.59-6.15h.68a11.1,11.1,0,0,0,1,2.28,9.17,9.17,0,0,0,1.56,2.06,7.43,7.43,0,0,0,2.18,1.5,6.85,6.85,0,0,0,2.88.57,6.06,6.06,0,0,0,2.14-.38,5.16,5.16,0,0,0,1.74-1.05,4.9,4.9,0,0,0,1.16-1.68,5.65,5.65,0,0,0,.42-2.23,6.31,6.31,0,0,0-.58-2.71,11.42,11.42,0,0,0-1.57-2.41,20.8,20.8,0,0,0-2.19-2.22c-.81-.72-1.65-1.45-2.52-2.18s-1.71-1.49-2.52-2.26a18.5,18.5,0,0,1-2.2-2.49,12.37,12.37,0,0,1-1.56-2.85,9.09,9.09,0,0,1-.58-3.33,7.26,7.26,0,0,1,.81-3.45,8.13,8.13,0,0,1,2.15-2.58,9.92,9.92,0,0,1,3.05-1.63,11.37,11.37,0,0,1,3.58-.57,15.7,15.7,0,0,1,2.55.2,19.93,19.93,0,0,1,2.15.47c.64.19,1.2.37,1.67.55s.87.34,1.17.44Z"/><path class="cls-4" d="M367.88,441.67,377,464.72l7.64-19.12c.19-.41.39-.87.58-1.38s.38-1,.54-1.56.29-1,.39-1.53a6.6,6.6,0,0,0,.14-1.32,3.91,3.91,0,0,0-.06-.73,1.5,1.5,0,0,0-.13-.41v-.13h6.08v.13a12.14,12.14,0,0,0-1.53,2.13,38.29,38.29,0,0,0-2.08,4.35L376.4,474h-1.79l-8.78-21.5L356.89,474H355L343.85,446.8c-.41-1-.85-1.95-1.31-2.87s-.91-1.75-1.34-2.47-.79-1.34-1.1-1.83l-.64-1v-.13h8.91v.13a2.26,2.26,0,0,0-.09.53,4.77,4.77,0,0,0,0,.61,9.45,9.45,0,0,0,.33,2.33,29,29,0,0,0,1.07,3.2l7.81,19.51,9.17-23.18Z"/><path class="cls-4" d="M416,462.51h-8.29c-1.11,0-2.16,0-3.16,0l-2.73,0h-1.92l-1.2,2.54c-.52,1-1,1.95-1.33,2.72s-.67,1.44-.91,2a10.52,10.52,0,0,0-.52,1.51,4.74,4.74,0,0,0-.17,1.19,3.17,3.17,0,0,0,0,.53.84.84,0,0,0,.09.28v.13h-5.72v-.13a7.12,7.12,0,0,0,.72-1c.32-.51.7-1.13,1.12-1.87s.88-1.57,1.36-2.51,1-1.89,1.45-2.89l13.27-27.38h2.44l13,27.38c.5,1,1,2,1.52,3s1,1.81,1.41,2.56.81,1.36,1.14,1.85a4.77,4.77,0,0,0,.65.86v.13H420A1.67,1.67,0,0,0,420,473v-.47a6,6,0,0,0-.31-1.73,21.57,21.57,0,0,0-.75-2.06c-.29-.71-.59-1.38-.91-2s-.57-1.2-.76-1.63ZM401.21,460h4.9l3.1,0c1,0,2.05,0,3,0h2.63l-6.73-14.37Z"/><path class="cls-4" d="M443.81,458.64a9.36,9.36,0,0,1-1.29.11l-1.28,0-1.14,0c-.41,0-.83-.06-1.27-.1v1.59c0,1.93,0,3.62.07,5.06s.1,2.68.18,3.72.17,1.92.27,2.62a11.22,11.22,0,0,0,.39,1.74v.13h-7.51v-.13a11.91,11.91,0,0,0,.41-1.76c.12-.71.22-1.59.29-2.65s.14-2.3.18-3.75.07-3.16.07-5.11v-8.19c0-2,0-3.65-.07-5.09s-.1-2.69-.18-3.74-.17-1.93-.29-2.65a12.56,12.56,0,0,0-.41-1.76v-.13l1.11.07,1.09.05h1.22c.69,0,1.72-.06,3.09-.19s3-.19,4.81-.19a17.66,17.66,0,0,1,5.09.68,11.67,11.67,0,0,1,3.93,1.95,8.62,8.62,0,0,1,2.54,3.09,9.16,9.16,0,0,1,.89,4.06,9.92,9.92,0,0,1-.49,3.21,9.07,9.07,0,0,1-1.36,2.6,10.27,10.27,0,0,1-2.08,2,15,15,0,0,1-2.67,1.53l6.8,9.59c.58.78,1.17,1.53,1.77,2.24s1.16,1.36,1.71,1.92a15.9,15.9,0,0,0,1.53,1.42,4.87,4.87,0,0,0,1.2.76v.13h-8.52a2.62,2.62,0,0,0-.41-1c-.27-.49-.58-1-.94-1.53l-1.07-1.55-.8-1.1Zm-5-2.11c.44.06.88.11,1.32.14s.87.05,1.29.05c2.7,0,4.76-.72,6.16-2.18s2.09-3.63,2.09-6.53a8.75,8.75,0,0,0-1.67-5.66,6,6,0,0,0-4.93-2.08c-.69,0-1.3,0-1.83.08s-1,.11-1.35.18-.77.17-1.08.26Z"/><path class="cls-4" d="M465.46,438.48l1.47,0,1.14,0h.81l1.62,0,2.66-.08,3.12-.1c1.09,0,2.1,0,3,0a29.57,29.57,0,0,1,7.25.87,16.68,16.68,0,0,1,6.06,2.88,13.89,13.89,0,0,1,4.15,5.24,18.56,18.56,0,0,1,1.53,8,19.39,19.39,0,0,1-1.76,8.65,15.82,15.82,0,0,1-4.75,5.77,19.44,19.44,0,0,1-6.94,3.22,34.15,34.15,0,0,1-8.34,1c-.69,0-1.56,0-2.6-.06l-3.19-.13-3.07-.13c-1-.05-1.7-.07-2.2-.07v-.13a10.76,10.76,0,0,0,.41-1.76c.12-.71.22-1.59.29-2.65s.14-2.3.18-3.75.07-3.16.07-5.11v-8.19c0-2,0-3.65-.07-5.11s-.1-2.71-.18-3.77-.17-1.95-.29-2.66a11,11,0,0,0-.41-1.76Zm6.74,2.37c0,1.78-.05,3.5-.07,5.17,0,.72,0,1.45,0,2.2l0,2.23c0,.73,0,1.43,0,2.09v1.78c0,1.08,0,2.39,0,3.91s0,3.1.05,4.7.05,3.15.1,4.64.1,2.72.16,3.72c.22,0,.5.08.85.11l1.09.1,1.12.07h.94a28.09,28.09,0,0,0,3.63-.23,15.26,15.26,0,0,0,3.54-.86,12.6,12.6,0,0,0,3.2-1.74,10.55,10.55,0,0,0,2.62-2.84,14.43,14.43,0,0,0,1.76-4.2,23.5,23.5,0,0,0,.63-5.8q0-7.38-3.53-11.38t-10.52-4l-1.44,0-1.52.08c-.49,0-1,.07-1.41.12Z"/><path class="cls-4" d="M516.74,458.64a9.35,9.35,0,0,1-1.28.11l-1.29,0-1.13,0c-.42,0-.84-.06-1.27-.1v1.59c0,1.93,0,3.62.06,5.06s.11,2.68.18,3.72.17,1.92.28,2.62a11.22,11.22,0,0,0,.39,1.74v.13h-7.51v-.13a12.07,12.07,0,0,0,.4-1.76c.12-.71.22-1.59.3-2.65s.13-2.3.17-3.75.07-3.16.07-5.11v-8.19c0-2,0-3.65-.07-5.09s-.1-2.69-.17-3.74-.18-1.93-.3-2.65a12.72,12.72,0,0,0-.4-1.76v-.13l1.1.07,1.09.05h1.22c.69,0,1.72-.06,3.09-.19s3-.19,4.81-.19a17.61,17.61,0,0,1,5.09.68,11.82,11.82,0,0,1,3.94,1.95A8.59,8.59,0,0,1,528,444a9,9,0,0,1,.9,4.06,10.2,10.2,0,0,1-.49,3.21,9.09,9.09,0,0,1-1.37,2.6,10,10,0,0,1-2.08,2,15.26,15.26,0,0,1-2.66,1.53l6.79,9.59c.59.78,1.18,1.53,1.77,2.24s1.17,1.36,1.71,1.92a15.9,15.9,0,0,0,1.53,1.42,5.27,5.27,0,0,0,1.2.76v.13h-8.52a2.55,2.55,0,0,0-.4-1c-.28-.49-.59-1-.95-1.53s-.71-1.05-1.07-1.55l-.8-1.1Zm-5-2.11c.43.06.87.11,1.31.14s.88.05,1.29.05c2.71,0,4.76-.72,6.16-2.18s2.1-3.63,2.1-6.53a8.76,8.76,0,0,0-1.68-5.66,5.93,5.93,0,0,0-4.92-2.08c-.7,0-1.31,0-1.84.08s-1,.11-1.35.18-.77.17-1.07.26Z"/><path class="cls-4" d="M536.22,455.91a17.37,17.37,0,0,1,1.45-7.12,17.86,17.86,0,0,1,4-5.71,18.1,18.1,0,0,1,5.92-3.79,19.47,19.47,0,0,1,7.31-1.36,20.47,20.47,0,0,1,7.24,1.28,17.73,17.73,0,0,1,5.91,3.66,17.23,17.23,0,0,1,4,5.75,19,19,0,0,1,1.46,7.58,18.57,18.57,0,0,1-1.24,6.72,17,17,0,0,1-3.6,5.72,17.49,17.49,0,0,1-5.86,4,21.73,21.73,0,0,1-15.15.21,17.9,17.9,0,0,1-5.92-3.63,17,17,0,0,1-4-5.72A18.88,18.88,0,0,1,536.22,455.91Zm19.38,15.87a10.59,10.59,0,0,0,4.55-1,10.28,10.28,0,0,0,3.6-2.8,13.24,13.24,0,0,0,2.34-4.43,19.67,19.67,0,0,0,.83-5.91,28.5,28.5,0,0,0-.8-6.92,16.49,16.49,0,0,0-2.41-5.51,11.11,11.11,0,0,0-9.64-5,10.87,10.87,0,0,0-4.55.94,10.07,10.07,0,0,0-3.59,2.73,12.8,12.8,0,0,0-2.36,4.39,19,19,0,0,0-.85,5.92,27.61,27.61,0,0,0,.83,6.91,17.53,17.53,0,0,0,2.44,5.56,11.78,11.78,0,0,0,4,3.71A11.2,11.2,0,0,0,555.6,471.78Z"/><path class="cls-4" d="M580.08,438.48c.42,0,.84,0,1.27,0s.77,0,1.21,0h1.26c.68,0,1.61,0,2.8-.12s2.68-.13,4.46-.13a16.21,16.21,0,0,1,4.4.56A10.76,10.76,0,0,1,599,440.5a7.55,7.55,0,0,1,2.31,2.63,7.46,7.46,0,0,1,.83,3.54,9,9,0,0,1-.47,3,7,7,0,0,1-1.35,2.31,7.68,7.68,0,0,1-2.11,1.66,12.59,12.59,0,0,1-2.74,1.06,16.14,16.14,0,0,1,4,1.07,11,11,0,0,1,3.06,1.87,7.85,7.85,0,0,1,2,2.63,8.18,8.18,0,0,1,.68,3.37c0,3.42-1.22,6-3.67,7.69s-6.1,2.55-11,2.55c-.52,0-1.17,0-1.93-.06l-2.41-.13-2.41-.13c-.77-.05-1.41-.07-1.93-.07h-1.73v-.13a10.76,10.76,0,0,0,.41-1.76c.12-.71.22-1.59.29-2.65s.14-2.3.18-3.75.07-3.16.07-5.11v-8.19c0-2,0-3.65-.07-5.11s-.1-2.71-.18-3.77-.17-1.95-.29-2.66a11,11,0,0,0-.41-1.76Zm6.61,15.71a10.86,10.86,0,0,0,1.17.11l1.07,0a7.29,7.29,0,0,0,5.22-1.83,7.1,7.1,0,0,0,1.93-5.43,8.88,8.88,0,0,0-.39-2.69,6.13,6.13,0,0,0-1.12-2.12,5,5,0,0,0-1.82-1.36,6,6,0,0,0-2.49-.49,14,14,0,0,0-1.59.08l-1.11.15-.87.22ZM591,456.4a25.1,25.1,0,0,0-2.65.11c-.73.08-1.28.15-1.67.21v3.38c0,1.87,0,3.43,0,4.69s0,2.3.07,3.15.06,1.52.08,2,0,.95.1,1.32a9.15,9.15,0,0,0,1.8.29c.64,0,1.14.07,1.51.07,3,0,5.17-.66,6.52-2s2-3.34,2-6.1a8.47,8.47,0,0,0-.48-2.89,6.06,6.06,0,0,0-1.47-2.28,6.82,6.82,0,0,0-2.44-1.48A10.05,10.05,0,0,0,591,456.4Z"/><path class="cls-4" d="M618.32,438.53q3.36,0,6.21-.07c1.91,0,3.55-.07,4.93-.11a19.52,19.52,0,0,0,2.72-.2l-1.27,3.52c-.59-.16-1.25-.3-2-.43s-1.43-.21-2.35-.31-2-.14-3.21-.14c-.43,0-.93,0-1.49,0l-1.63.11-1.85.13v12.84c1.75,0,3.34-.06,4.75-.13s2.61-.15,3.61-.25c1.17-.09,2.2-.21,3.08-.36l-.78,3.87q-1.78-.23-3.6-.39c-1.05-.11-2.2-.2-3.45-.28s-2.46-.11-3.61-.11V471c2,0,3.87-.08,5.56-.24s3.16-.35,4.42-.54c1.47-.24,2.81-.51,4-.81l-.75,4.26c-.32,0-.85-.05-1.57-.09s-1.49-.05-2.28-.06l-2.23,0c-.69,0-1.17,0-1.43,0H611.79v-.13a10.88,10.88,0,0,0,.4-1.76c.12-.71.22-1.59.3-2.65s.13-2.3.18-3.75.06-3.16.06-5.11v-8.19c0-2,0-3.65-.06-5.09s-.11-2.69-.18-3.74-.18-1.93-.3-2.65a11.41,11.41,0,0,0-.4-1.76v-.13Z"/></g></g></g><g id="Layer_8" data-name="Layer 8"><path class="cls-2" d="M543.93,507.25h91.45"/><rect class="cls-5" x="543.93" y="506.75" width="91.45" height="1"/><path class="cls-2" d="M185.89,507.25h91.45"/><rect class="cls-5" x="185.89" y="506.75" width="91.45" height="1"/><path class="cls-4" d="M326.2,488.39a11.17,11.17,0,0,0-2.89,2.86A19.54,19.54,0,0,0,321,495.6q-.76,2-1.71,5.21c-.63,2.14-1.1,3.61-1.4,4.41a19.17,19.17,0,0,1-6.83,8.69,16.64,16.64,0,0,1-9.93,3.55,5,5,0,0,1-3.87-1.3,2.94,2.94,0,0,1-.43-3.28,4.35,4.35,0,0,1,1.31-1.76,2.78,2.78,0,0,1,1.73-.77,1,1,0,0,1,.34.06,1.43,1.43,0,0,1,.3.16l1.19.76a12.45,12.45,0,0,0-2.15,1.55,4.28,4.28,0,0,0-1.05,1.54,1.55,1.55,0,0,0,.31,1.86,3.83,3.83,0,0,0,2.56.67,11.41,11.41,0,0,0,7.38-2.48,17.45,17.45,0,0,0,5-7.51c.1-.26.38-1,.85-2.39s.9-2.55,1.31-3.62a29,29,0,0,1,4.19-7.7,22,22,0,0,1,5.95-5.16Zm-5.78,13.36a13.33,13.33,0,0,0,5.69-3,13.52,13.52,0,0,0,3.56-5.32q1.43-3.75-.25-6c-1.12-1.54-3.07-2.3-5.85-2.3a16,16,0,0,0-3.51.4,22.68,22.68,0,0,0-3.68,1.18,20.31,20.31,0,0,0-6.21,4.15,15.45,15.45,0,0,0-3.88,5.52,6.48,6.48,0,0,0-.38,4.63,2.71,2.71,0,0,0,2.78,1.81,5.71,5.71,0,0,0,2-.41,13.77,13.77,0,0,0,2.41-1.23l-.13.45a14.18,14.18,0,0,1-3.25,1.9,8.13,8.13,0,0,1-3.07.64q-2.86,0-3.84-1.71c-.65-1.14-.6-2.69.16-4.67a14.91,14.91,0,0,1,3.11-4.8,28.59,28.59,0,0,1,5.55-4.47,25,25,0,0,1,6.27-2.9,22.36,22.36,0,0,1,6.54-1q5.4,0,7.75,2.2t1,5.79a12.66,12.66,0,0,1-4.31,5.51,25.21,25.21,0,0,1-7.95,3.91,3.56,3.56,0,0,1,2.9,2.14q.66,1.68,0,6.45a13.77,13.77,0,0,0-.22,4.56,1.36,1.36,0,0,0,1.46,1,8.67,8.67,0,0,0,4.48-1.88,34.39,34.39,0,0,0,5.74-5.17l.44.1a35.67,35.67,0,0,1-6.92,6,11.47,11.47,0,0,1-5.83,2.15,2.6,2.6,0,0,1-2.86-1.88q-.53-1.86.75-7.8l0-.15q1.05-4.65-.62-5.25Z"/><path class="cls-4" d="M346.49,506l-.16.43a3.08,3.08,0,0,0-1,.92,9.16,9.16,0,0,0-.91,1.9l-1.84,4.79a6,6,0,0,0-.5,1.8.43.43,0,0,0,.49.47c1,0,2.41-.66,4.27-2a36.22,36.22,0,0,0,5.73-5.18l.36.17a35.32,35.32,0,0,1-6.68,5.79c-2.27,1.48-4,2.23-5.36,2.23a1.12,1.12,0,0,1-1.19-.75,3.3,3.3,0,0,1,.21-2.07,12.35,12.35,0,0,1-3,2.11,6.53,6.53,0,0,1-2.82.71,2.23,2.23,0,0,1-2.21-1.14,3.69,3.69,0,0,1,.14-3,10.36,10.36,0,0,1,3.59-4.5,8.34,8.34,0,0,1,4.91-2,3.88,3.88,0,0,1,1.31.23,4.61,4.61,0,0,1,1.22.7Zm-4.87,4.13a2.94,2.94,0,0,0,.2-2.16c-.23-.51-.74-.76-1.55-.76a4.56,4.56,0,0,0-3,1.37,8.68,8.68,0,0,0-2.33,3.45,4.12,4.12,0,0,0-.29,2.78,1.56,1.56,0,0,0,1.64,1,4,4,0,0,0,1.93-.58,8,8,0,0,0,2-1.58Z"/><path class="cls-4" d="M353.56,513.19a7.17,7.17,0,0,0-.65,2.52c0,.44.32.67.84.67,1.05,0,2.54-.67,4.45-2a34.45,34.45,0,0,0,5.83-5.22l.38.17a33.76,33.76,0,0,1-6.76,5.84c-2.28,1.45-4.2,2.18-5.74,2.18a1.46,1.46,0,0,1-1.46-.8,2.62,2.62,0,0,1,.11-2.09l2.83-7.36,4.18-1.09-.15.38a4.78,4.78,0,0,0-1.3.78,3.75,3.75,0,0,0-.76,1.33Zm2.81-14a2.33,2.33,0,0,1,.85-1,2.09,2.09,0,0,1,1.2-.45,1.05,1.05,0,0,1,.93.44,1.08,1.08,0,0,1,.06,1,2.27,2.27,0,0,1-.87,1,2.2,2.2,0,0,1-1.25.45.93.93,0,0,1-.83-.46A1.08,1.08,0,0,1,356.37,499.19Z"/><path class="cls-4" d="M359.33,517.93l.16-.42a3.53,3.53,0,0,0,1-1,8.6,8.6,0,0,0,.89-1.8L367,500a20.74,20.74,0,0,1,5.11-7.76q3.35-3.19,6.13-3.19a2,2,0,0,1,1.86.89,2.76,2.76,0,0,1-.06,2.35,20.28,20.28,0,0,1-3.54,5.32q-2.71,3.17-9.95,10.1l-1.05,2.74a29.46,29.46,0,0,1,4.17-2.8,6.91,6.91,0,0,1,2.93-1,1.5,1.5,0,0,1,1.34.58,1.59,1.59,0,0,1,0,1.48l-2.13,5.56a3.25,3.25,0,0,0-.3,1.4.5.5,0,0,0,.57.45c.89,0,2.23-.64,4-1.94a38,38,0,0,0,5.6-5.11l.39.15a35.5,35.5,0,0,1-6.74,5.87q-3.41,2.22-5.58,2.22a.93.93,0,0,1-.93-.53,1.77,1.77,0,0,1,.07-1.38l2.27-5.91a1.72,1.72,0,0,0,.16-1.19q-.16-.36-.84-.36a4.17,4.17,0,0,0-1.87.74,40.91,40.91,0,0,0-3.41,2.39L363,517Zm7.52-10.88a78.31,78.31,0,0,0,7.41-8,25.81,25.81,0,0,0,3.76-6.36,4.15,4.15,0,0,0,.37-2.21.88.88,0,0,0-.93-.83q-1.66,0-3.76,2.51a22.83,22.83,0,0,0-3.59,6.43Z"/><path class="cls-4" d="M393.07,506l-.17.43a3.19,3.19,0,0,0-1,.92,9.8,9.8,0,0,0-.9,1.9l-1.84,4.79a6.12,6.12,0,0,0-.51,1.8.43.43,0,0,0,.49.47q1.48,0,4.28-2a36.22,36.22,0,0,0,5.73-5.18l.36.17a35.32,35.32,0,0,1-6.68,5.79c-2.27,1.48-4.06,2.23-5.36,2.23a1.12,1.12,0,0,1-1.19-.75,3.3,3.3,0,0,1,.21-2.07,12.39,12.39,0,0,1-3,2.11,6.46,6.46,0,0,1-2.82.71,2.22,2.22,0,0,1-2.2-1.14,3.69,3.69,0,0,1,.14-3,10.36,10.36,0,0,1,3.59-4.5,8.31,8.31,0,0,1,4.9-2,3.84,3.84,0,0,1,1.31.23,4.51,4.51,0,0,1,1.23.7Zm-4.88,4.13a3,3,0,0,0,.21-2.16c-.23-.51-.74-.76-1.55-.76a4.56,4.56,0,0,0-3,1.37,8.68,8.68,0,0,0-2.33,3.45,4.06,4.06,0,0,0-.29,2.78,1.55,1.55,0,0,0,1.64,1,4.06,4.06,0,0,0,1.93-.58,8,8,0,0,0,2-1.58Z"/><path class="cls-4" d="M394.46,518l.16-.42a3.7,3.7,0,0,0,1-1,9.53,9.53,0,0,0,.91-1.84l3-7.79,3.4-.88-.15.38a3.63,3.63,0,0,0-.61.53,2,2,0,0,0-.39.65l-.06.15-1.07,2.79a29.46,29.46,0,0,1,4.17-2.8,6.87,6.87,0,0,1,2.93-1,1.35,1.35,0,0,1,1.39,2L407,514.32a3,3,0,0,0-.3,1.4.49.49,0,0,0,.56.45c.91,0,2.26-.64,4.05-1.93a36.9,36.9,0,0,0,5.55-5.07l.39.17a34.44,34.44,0,0,1-6.7,5.83c-2.26,1.46-4.12,2.19-5.6,2.19a.94.94,0,0,1-.93-.53,1.78,1.78,0,0,1,.08-1.38l2.27-5.91a1.7,1.7,0,0,0,.15-1.19q-.15-.36-.84-.36a4.14,4.14,0,0,0-1.86.74,39.3,39.3,0,0,0-3.41,2.39l-2.28,5.93Z"/><path class="cls-4" d="M429.88,513.86a29,29,0,0,1-3.88,2.67,5.73,5.73,0,0,1-2.59.83,1.55,1.55,0,0,1-1.36-.56,1.52,1.52,0,0,1,0-1.45l3.24-8.45,3.41-.88-.15.38a3.72,3.72,0,0,0-.62.53,2.2,2.2,0,0,0-.39.65l-.05.15-2.63,6.84a2,2,0,0,0-.2,1.19q.11.36.69.36a3.86,3.86,0,0,0,1.71-.69,37,37,0,0,0,3.11-2.24l2.39-6.23,3.7-.94-.17.43a3.68,3.68,0,0,0-1.06,1.06,9.29,9.29,0,0,0-.87,1.76L431,517.56a35,35,0,0,0,6.13-3.61,33.11,33.11,0,0,0,5.2-4.78l.36.17a36.1,36.1,0,0,1-5.45,4.95,37.93,37.93,0,0,1-6.47,3.84l-.49,1.29a26.42,26.42,0,0,1-6.12,9.64c-2.59,2.52-5.06,3.77-7.42,3.77a2.29,2.29,0,0,1-2.12-.89,2.85,2.85,0,0,1,.08-2.5q.84-2.19,4.13-4.77a59.11,59.11,0,0,1,9.1-5.61Zm-2.21,5.76a33,33,0,0,0-7.16,4.61,13.12,13.12,0,0,0-3.72,5,3.72,3.72,0,0,0-.31,2.22,1.06,1.06,0,0,0,1.15.82q2.24,0,4.8-2.85a23.91,23.91,0,0,0,4.35-7.5Z"/><path class="cls-4" d="M453.56,506l-.16.43a3.19,3.19,0,0,0-1,.92,9.71,9.71,0,0,0-.91,1.9l-1.84,4.79a6,6,0,0,0-.5,1.8.43.43,0,0,0,.49.47q1.48,0,4.27-2a36.69,36.69,0,0,0,5.74-5.18l.36.17a35.67,35.67,0,0,1-6.69,5.79c-2.26,1.48-4,2.23-5.36,2.23a1.1,1.1,0,0,1-1.18-.75,3.28,3.28,0,0,1,.2-2.07,12.35,12.35,0,0,1-3,2.11,6.53,6.53,0,0,1-2.82.71,2.24,2.24,0,0,1-2.21-1.14,3.66,3.66,0,0,1,.15-3,10.26,10.26,0,0,1,3.58-4.5,8.36,8.36,0,0,1,4.91-2,3.88,3.88,0,0,1,1.31.23,4.46,4.46,0,0,1,1.22.7Zm-4.87,4.13a2.89,2.89,0,0,0,.2-2.16c-.22-.51-.74-.76-1.54-.76a4.56,4.56,0,0,0-3,1.37,8.79,8.79,0,0,0-2.33,3.45,4.05,4.05,0,0,0-.28,2.78,1.54,1.54,0,0,0,1.63,1,4,4,0,0,0,1.93-.58,8,8,0,0,0,2-1.58Z"/><path class="cls-4" d="M462.87,505.92a9.82,9.82,0,0,1,2.27,3.3,4.17,4.17,0,0,1-.06,3,7.78,7.78,0,0,1-1.83,2.72,9.64,9.64,0,0,1-3,2h.63a12.57,12.57,0,0,0,6.4-1.92,29.28,29.28,0,0,0,6.74-5.81l.36.17a31,31,0,0,1-7,6,12.78,12.78,0,0,1-6.5,2l-1,0-1.19,0-.46,0-.44,0a3.5,3.5,0,0,1-2.27-.78c-.65-.52-.91-.93-.8-1.23a3.58,3.58,0,0,1,.93-.91,20.4,20.4,0,0,1,2-1.41,4.05,4.05,0,0,0-.06,2.62,1.58,1.58,0,0,0,1.61.93,3.75,3.75,0,0,0,2.22-.76,4.17,4.17,0,0,0,1.5-1.91,3.5,3.5,0,0,0,0-2.66,7.61,7.61,0,0,0-2.16-2.74,47.25,47.25,0,0,1-3.9,4A29.08,29.08,0,0,1,453,515.4l.22-.56a32.7,32.7,0,0,0,5.4-4.52,49.71,49.71,0,0,0,5.22-6.4l.41.12Z"/><path class="cls-4" d="M485.34,506l-.16.43a3.19,3.19,0,0,0-1,.92,9.16,9.16,0,0,0-.91,1.9l-1.84,4.79a6,6,0,0,0-.5,1.8.43.43,0,0,0,.49.47q1.49,0,4.27-2a36.69,36.69,0,0,0,5.74-5.18l.36.17a35.67,35.67,0,0,1-6.69,5.79c-2.27,1.48-4.05,2.23-5.36,2.23a1.1,1.1,0,0,1-1.18-.75,3.28,3.28,0,0,1,.2-2.07,12.35,12.35,0,0,1-3,2.11,6.53,6.53,0,0,1-2.82.71,2.23,2.23,0,0,1-2.21-1.14,3.66,3.66,0,0,1,.15-3,10.26,10.26,0,0,1,3.58-4.5,8.34,8.34,0,0,1,4.91-2,3.88,3.88,0,0,1,1.31.23,4.46,4.46,0,0,1,1.22.7Zm-4.87,4.13a2.89,2.89,0,0,0,.2-2.16,1.5,1.5,0,0,0-1.54-.76,4.56,4.56,0,0,0-3,1.37,8.79,8.79,0,0,0-2.33,3.45,4.12,4.12,0,0,0-.29,2.78,1.56,1.56,0,0,0,1.64,1,4,4,0,0,0,1.93-.58,8,8,0,0,0,2-1.58Z"/><path class="cls-4" d="M494,505.52h.45q-.23.38-.51.93a1.4,1.4,0,0,1-.13.2,3.7,3.7,0,0,0,1.31.67,5.9,5.9,0,0,0,1.65.21,8,8,0,0,0,3.49-.78l-.06.41a15.49,15.49,0,0,0-2.63,2.5,9.71,9.71,0,0,0-1.57,2.7,4.59,4.59,0,0,0-.41,2.65,1.2,1.2,0,0,0,1.3,1c.89,0,2.19-.61,3.9-1.84a37.61,37.61,0,0,0,5.45-5l.33.17a36.57,36.57,0,0,1-6.69,5.83q-3.35,2.19-5.43,2.19a1.56,1.56,0,0,1-1.6-.86,3.14,3.14,0,0,1,.19-2.34,9,9,0,0,1,1.8-2.78,36.36,36.36,0,0,1,4.21-3.7,21.88,21.88,0,0,1-3.49,1.23,12.3,12.3,0,0,1-3.08.43h-.68a37.12,37.12,0,0,1-3.53,3.48,28.32,28.32,0,0,1-3.52,2.58l.22-.56a31.38,31.38,0,0,0,5.24-4.33A25.6,25.6,0,0,0,494,505.52Z"/><path class="cls-4" d="M512.64,491.78l4.1-2.76a2.21,2.21,0,0,1,.42,1.14,3.42,3.42,0,0,1-.25,1.37,8.45,8.45,0,0,1-2.28,3.05,19.82,19.82,0,0,1-4.21,2.85l.19-.5a13.09,13.09,0,0,0,2.64-1.82,5.17,5.17,0,0,0,1.4-1.9,1.66,1.66,0,0,0,.11-1.15,1.2,1.2,0,0,0-.78-.68l-1.1.7Z"/><path class="cls-4" d="M518,505.92a9.67,9.67,0,0,1,2.27,3.3,4.22,4.22,0,0,1,0,3,7.81,7.81,0,0,1-1.84,2.72,9.52,9.52,0,0,1-3,2h.63a12.57,12.57,0,0,0,6.4-1.92,29.31,29.31,0,0,0,6.75-5.81l.36.17a31,31,0,0,1-7,6,12.75,12.75,0,0,1-6.49,2l-1,0-1.19,0-.47,0-.43,0a3.54,3.54,0,0,1-2.28-.78c-.64-.52-.91-.93-.79-1.23s.36-.46.92-.91a20.4,20.4,0,0,1,2-1.41,4.05,4.05,0,0,0-.06,2.62,1.59,1.59,0,0,0,1.62.93,3.7,3.7,0,0,0,2.21-.76,4.17,4.17,0,0,0,1.5-1.91,3.46,3.46,0,0,0,0-2.66,7.61,7.61,0,0,0-2.16-2.74,45.75,45.75,0,0,1-3.9,4,29,29,0,0,1-3.94,2.94l.21-.56a31.9,31.9,0,0,0,5.4-4.52,50.59,50.59,0,0,0,5.23-6.4l.4.12Z"/></g></g></svg>