<svg xmlns="http://www.w3.org/2000/svg" viewBox="0 0 782 617"><defs><style>@font-face{font-family:MarcellusSC-Regular;src:url(MarcellusSC-Regular.ttf)}@font-face{font-family:TypoUprightBT-Regular;src:url(TypoUprightBT.ttf)}.cls-1{fill:none}.cls-1,.cls-11,.cls-12,.cls-5{stroke:#fcf1ed}.cls-1,.cls-2{stroke-width:2px;fill-rule:evenodd}.cls-2,.cls-3{fill:#fff}.cls-2{stroke:#000}.cls-4,.cls-5{isolation:isolate}.cls-5{font-size:66.59px;stroke-miterlimit:10;font-family:MarcellusSC-Regular,Marcellus SC}.cls-11,.cls-12,.cls-5{fill:#fcf1ed}.cls-6{letter-spacing:-.02em}.cls-7{letter-spacing:-.06em}.cls-8{letter-spacing:-.01em}.cls-9{letter-spacing:0}.cls-10{letter-spacing:0}.cls-11{stroke-width:3px}.cls-12{font-size:55.11px;font-family:TypoUprightBT-Regular,TypoUpright BT}</style></defs><g id="Layer_2" data-name="Layer 2"><g id="Layer_9" data-name="Layer 9"><path class="cls-1" d="M56.32,1H725.68C756.23,1,781,26.54,781,58V559c0,31.5-24.77,57-55.32,57H56.32C25.77,616,1,590.46,1,559V58C1,26.54,25.77,1,56.32,1Z"/></g><g id="Layer_6" data-name="Layer 6"><path class="cls-1" d="M405.71,66.06c84.27,0,152.59,70.65,152.59,157.8S490,381.66,405.71,381.66,253.12,311,253.12,223.86,321.43,66.06,405.71,66.06Z"/></g><g id="Layer_5" data-name="Layer 5"><path class="cls-1" d="M405.16,80.11c76.64,0,138.77,64.25,138.77,143.51S481.8,367.13,405.16,367.13,266.39,302.87,266.39,223.62,328.52,80.11,405.16,80.11Z"/></g><g id="Layer_4" data-name="Layer 4"><path class="cls-1" d="M404.76,380.36s-14.68,4.77-10,9.55c-.53,3.91-8.89.43-8.26.44.95,0-3-1.11-5.36-5.64-1.84-6.81,1.1-6.52,5.36-3.92,2.65,4.35,11.39-2.75,9.56-5.64s-6.14-10,3-9.55c4.19,2.53,4.91,4.54,6.09,8.68C406.11,378.26,404.76,380.36,404.76,380.36ZM392.59,369.5c0,6.81-14.29-7.23-6.52-18.67,6.33-8,15.7,1.45,10.43,6.08C388.34,361.39,392.59,369.5,392.59,369.5Zm-2.17,7.39S377,366,364.33,365.6s-13.38-13.32.87-11.3C383.44,356.9,397.54,382.39,390.42,376.89ZM363,388.18l-3,5.21s3.53-34.89-27.83-30c-9.51-.17-10.37-18.49,12.18-8.25C354.49,360.53,367.44,372,363,388.18ZM325.21,360c3.48,4.13.43,2.61.43,2.61-2.11-1-26.46-8-22.17-21.72s16.09-3.9,16.09-3.9,7.66,6.55.43,10.85C307.12,347.75,325.21,360,325.21,360Zm-14.35-44.73c-5.43.21,2.4,4.36-6.95,2.61-4.14,0,2.39,7,5.21,3.91s5.66-.42-.43,4.77S295.43,333,296.08,337.8,292,343,311.73,356.48c8,6.28,6.09,7.18,6.52,8.25s17.83-1.94,27.39,5.21,15,13.46,12.17,24.75c0,0-8.9-21.05-26.51-21.71s-31.95-5.2-34.78-7.82-5.87-4.54-7-4.34-8.91-.42-19.13-11.29-8.69-13.45-9.56-15.63-.65-4.55-4.78-.87-6.95-2.16-10.87-5.21-14.56-14.1-7.83-21.28,11.75,5.66,11.74,4.78l3.05,4.34s7.82.23-1.31-7.82c-7.18-13-2.6-13.23-3-14.76s-.22-1.73-7-6.52,5.22-7.6,13,.44c2.83,2.82,4.57,2,8.26,20.84s4.14,16.52,4.79,20.84l2.6,6.52s6.53,4.36,1.31-10a43.23,43.23,0,0,1,0-22.15s-.43-11.49-7-19.1-13.9-10-18.26-8.69-12-4.11-7.82-8.25,17.61-.2,19.56,2.17,12.4,8.05,18.26,17.37c2.82,7.15,6.31,7,2.17,22.15s1.53,30,4.79,34.3,8.69,13.92,12.17,10.43-6.3-3.68-11.3-17.81-3.91-24.73,1.73-35.17,18.05-7.15,20.87.43c0,0-2.82,3.71-1.3,5.65s8.91-4.55,12.17,6.08C317.16,317.6,316.3,315,310.86,315.22Zm-20-3.47c-6.09,10.87,0,11.93.87,8.68s7.82-10,7.82-10C303.91,312,297,300.88,290.87,311.75ZM366.94,386c-.53-.14-3.24-7.67,4.35-13,8-2.89,13.43.14,13.91,1.73s4.2,3.33,0,3c0,0-10.05-1.74-9.56,7.82C371.05,392.23,367.47,386.15,366.94,386Zm-22.6.87c15.65,21,37,.87,37,.87,1.63-.32,2.61,3,2.61,3-13,18.69-27.67,11.6-40,9.55C333.59,398.62,328.57,377.85,344.34,386.87Z"/><path class="cls-1" d="M406.32,374.53c1.17-4.14,1.9-6.15,6.08-8.68,9.18-.44,4.88,6.66,3,9.55s6.91,10,9.57,5.64c4.25-2.6,7.19-2.89,5.35,3.92-2.37,4.53-6.3,5.65-5.35,5.64.63,0-7.73,3.47-8.26-.44,4.69-4.78-10-9.55-10-9.55S405.41,378.51,406.32,374.53ZM415,357.16c-5.27-4.63,4.11-14,10.43-6.08,7.78,11.44-6.52,25.48-6.52,18.67C418.92,369.75,423.18,361.64,415,357.16Zm31.3-2.6c14.25-2,13.57,10.85.87,11.29s-26.08,11.29-26.08,11.29C414,382.64,428.07,357.15,446.31,354.56Zm20.87.86c22.54-10.24,21.68,8.08,12.17,8.25-31.36-4.92-27.82,30-27.82,30l-3-5.21C444.08,372.21,457,360.78,467.18,355.42ZM491.52,348c-7.22-4.3.44-10.85.44-10.85s11.78-9.81,16.08,3.9-20.06,20.7-22.17,21.72c0,0-3,1.52.43-2.61C486.3,360.2,504.4,348,491.52,348Zm3-35.17c3.26-10.63,10.66-4.14,12.18-6.08s-1.31-5.65-1.31-5.65c2.82-7.58,15.22-10.87,20.87-.43S533,321.76,528,335.88s-14.78,14.32-11.31,17.81,8.92-6.1,12.18-10.42,8.91-19.13,4.78-34.31-.65-15,2.17-22.15c5.87-9.32,16.31-15,18.26-17.37s15.44-6.31,19.56-2.17-3.47,9.54-7.82,8.25-11.73,1.07-18.26,8.69-7,19.1-7,19.1a43.23,43.23,0,0,1,0,22.15c-5.22,14.35,1.31,10,1.31,10l2.61-6.51c.65-4.33,1.09-2,4.78-20.85s5.43-18,8.26-20.84c7.82-8,19.78-5.23,13-.44s-6.52,5-6.95,6.52,4.13,1.72-3.05,14.76c-9.13,8.05-1.3,7.82-1.3,7.82l3-4.34c0,.88,5-12,11.74-4.78s-3.91,18.22-7.83,21.28-6.73,8.88-10.86,5.21-3.91-1.32-4.79.87.66,4.76-9.56,15.63S523,361.27,522,361.07s-4.12,1.72-7,4.34-17.17,7.15-34.78,7.82-26.52,21.71-26.52,21.71c-2.83-11.29,2.61-17.6,12.17-24.75s27-4.14,27.39-5.21-1.52-2,6.52-8.25c19.78-13.45,15-13.91,15.65-18.68s-6.52-6.09-12.61-11.29-3.25-7.83-.43-4.77,9.35-3.93,5.22-3.91c-9.35,1.75-1.52-2.4-7-2.61S494.35,317.85,494.56,312.87ZM512,310.7s6.95,6.74,7.83,10,7,2.19.87-8.68S507.61,312.22,512,310.7Zm-76.07,75.12c.48-9.56-9.57-7.82-9.57-7.82-4.2.29-.48-1.44,0-3s5.89-4.62,13.91-1.73c7.59,5.35,4.88,12.88,4.35,13S440.46,392.48,435.88,385.82Zm31.73,14.76c-12.33,2.05-27,9.14-40-9.55,0,0,1-3.36,2.6-3,0,0,21.3,20.1,37-.87C482.94,378.1,477.93,398.87,467.61,400.58Z"/><path class="cls-2" d="M405.86,383.75c4.76.1,8.46,3.78,8.27,8.21s-4.2,7.94-9,7.83-8.46-3.78-8.27-8.21S401.1,383.64,405.86,383.75Z"/></g><g id="Layer_3" data-name="Layer 3"><polygon class="cls-3" points="380 175.68 369.64 187.77 380.35 180.17 380 175.68"/><polygon class="cls-3" points="395.55 165.31 382.42 173.95 382.77 177.4 395.55 165.31"/><polygon class="cls-3" points="361 227.17 373.44 244.47 373.79 227.17 373.79 227.17 373.79 227.17 373.44 209.88 361 227.17 361 227.17 361 227.17 361 227.17 361 227.17"/><polygon class="cls-3" points="361 199.51 361 221.97 372.75 205.73 361 199.51"/><polygon class="cls-3" points="361 232.38 361 254.83 372.75 248.61 361 232.38"/><polygon class="cls-3" points="377.93 200.55 401.08 184.66 382.77 182.93 377.93 200.55"/><polygon class="cls-3" points="421.11 191.57 427.68 182.93 410.75 184.31 421.11 191.57"/><polygon class="cls-3" points="437.87 202.62 449.27 196.75 433.38 184.66 437.87 202.62"/><polygon class="cls-3" points="404.53 160.84 385.19 179.82 404.53 181.55 404.53 160.84"/><polygon class="cls-3" points="432 175.68 431.65 180.17 442.36 187.77 432 175.68"/><polygon class="cls-3" points="434.07 200.55 430.1 184.31 424.22 193.64 434.07 200.55"/><polygon class="cls-3" points="407.47 160.84 407.47 181.55 426.81 179.82 407.47 160.84"/><polygon class="cls-3" points="374.13 251.72 362.73 257.59 378.62 269.69 374.13 251.72"/><polygon class="cls-3" points="429.58 173.95 416.45 165.31 429.23 177.4 429.58 173.95"/><polygon class="cls-3" points="378.62 184.66 362.73 196.75 374.13 202.62 378.62 184.66"/><polygon class="cls-3" points="432 278.67 442.36 266.58 431.65 274.18 432 278.67"/><polygon class="cls-3" points="416.45 289.03 429.58 280.39 429.23 276.94 416.45 289.03"/><polygon class="cls-3" points="433.38 269.69 449.27 257.59 437.87 251.72 433.38 269.69"/><polygon class="cls-3" points="451 254.83 451 232.38 439.25 248.61 451 254.83"/><polygon class="cls-3" points="439.25 205.73 451 221.97 451 199.51 439.25 205.73"/><polygon class="cls-3" points="451 227.17 438.56 209.88 438.21 227.17 438.21 227.17 438.21 227.17 438.56 244.47 451 227.17 451 227.17 451 227.17 451 227.17 451 227.17"/><polygon class="cls-3" points="407.47 272.8 407.47 293.5 426.81 274.52 407.47 272.8"/><path class="cls-3" d="M435.11,227.17V205.73l-29-20.61V185l-.08.06-.08-.06v.12l-29,20.61v42.88l29,20.61v.12l.08-.06.08.06v-.12l29-20.61Zm-16.42-5.3a11.64,11.64,0,0,1-11.64,11.64h-8.73v14.55h26.19a8.73,8.73,0,0,1-8.73,8.73H389.59V198.58h34.92a8.73,8.73,0,0,1-8.73,8.73H398.32v14.56Z"/><polygon class="cls-3" points="382.42 280.39 395.55 289.03 382.77 276.94 382.42 280.39"/><polygon class="cls-3" points="434.07 253.79 410.92 269.69 429.23 271.41 434.07 253.79"/><polygon class="cls-3" points="380 278.67 380.35 274.18 369.64 266.58 380 278.67"/><polygon class="cls-3" points="404.53 293.5 404.53 272.8 385.19 274.52 404.53 293.5"/><polygon class="cls-3" points="401.08 269.69 377.93 253.79 382.77 271.41 401.08 269.69"/></g><g id="Layer_7" data-name="Layer 7"><g class="cls-4"><text class="cls-5" transform="translate(185.6 473.5)">E<tspan class="cls-6" x="32.65" y="0">v</tspan><tspan class="cls-7" x="64.64" y="0">a</tspan><tspan x="97.84" y="0">&apos;s</tspan><tspan class="cls-8" x="154.45" y="0">w</tspan><tspan x="204.95" y="0">ard</tspan><tspan class="cls-9" x="315.31" y="0">r</tspan><tspan class="cls-10" x="348.22" y="0">obe</tspan></text></g></g><g id="Layer_8" data-name="Layer 8"><path class="cls-11" d="M543.93,507.25h91.45"/><path class="cls-11" d="M185.89,507.25h91.45"/><text class="cls-12" transform="matrix(0.93, 0, -0.36, 0.93, 293.23, 517.36)">Raihan yasar’s</text></g></g></svg>